<?xml version="1.0" encoding="utf-8"?>
<!-- Generator: Adobe Illustrator 25.2.3, SVG Export Plug-In . SVG Version: 6.00 Build 0)  -->
<svg version="1.1" id="Capa_1" xmlns="http://www.w3.org/2000/svg" xmlns:xlink="http://www.w3.org/1999/xlink" x="0px" y="0px"
	 viewBox="0 0 512 512" style="enable-background:new 0 0 512 512;" xml:space="preserve">
<style type="text/css">
	.st0{fill:#63CCCA;stroke:#63CCCA;stroke-width:4;stroke-miterlimit:10;}
</style>
<path class="st0" d="M57.4,31.8c-12,0-21.7,9.7-21.7,21.7c0,12,9.7,21.7,21.7,21.7c12,0,21.7-9.7,21.7-21.7
	C79.1,41.5,69.4,31.8,57.4,31.8z M57.4,60.4c-3.8,0-6.9-3.1-6.9-6.9c0-3.8,3.1-6.9,6.9-6.9c3.8,0,6.9,3.1,6.9,6.9
	C64.3,57.3,61.2,60.4,57.4,60.4z"/>
<path class="st0" d="M112.7,31.8c-12,0-21.7,9.7-21.7,21.7c0,12,9.7,21.7,21.7,21.7s21.7-9.7,21.7-21.7
	C134.4,41.5,124.7,31.8,112.7,31.8z M112.7,60.4c-3.8,0-6.9-3.1-6.9-6.9c0-3.8,3.1-6.9,6.9-6.9c3.8,0,6.9,3.1,6.9,6.9
	C119.6,57.3,116.5,60.4,112.7,60.4z"/>
<path class="st0" d="M168,31.8c-12,0-21.7,9.7-21.7,21.7c0,12,9.7,21.7,21.7,21.7c12,0,21.7-9.7,21.7-21.7
	C189.8,41.5,180,31.8,168,31.8z M168,60.4c-3.8,0-6.9-3.1-6.9-6.9c0-3.8,3.1-6.9,6.9-6.9c3.8,0,6.9,3.1,6.9,6.9
	C174.9,57.3,171.8,60.4,168,60.4z"/>
<path class="st0" d="M476.1,3.3H35.9C18,3.3,3.3,18,3.3,35.9v440.1c0,18,14.6,32.6,32.6,32.6h440.1c18,0,32.6-14.6,32.6-32.6V363.9
	c0-4.1-3.3-7.4-7.4-7.4c-4.1,0-7.4,3.3-7.4,7.4v112.1c0,9.8-8,17.8-17.8,17.8H35.9c-9.8,0-17.8-8-17.8-17.8v-372h475.7v214.1
	c0,4.1,3.3,7.4,7.4,7.4c4.1,0,7.4-3.3,7.4-7.4V35.9C508.7,18,494,3.3,476.1,3.3z M493.8,89.2H18.2V35.9c0-9.8,8-17.8,17.8-17.8
	h440.1c9.8,0,17.8,8,17.8,17.8V89.2z"/>
<path class="st0" d="M458.8,156.2c0-12.9-10.5-23.4-23.4-23.4H75.5c-12.9,0-23.4,10.5-23.4,23.4v43.5c0,4.1,3.3,7.4,7.4,7.4
	c4.1,0,7.4-3.3,7.4-7.4v-43.5c0-4.7,3.9-8.6,8.6-8.6h359.9c4.7,0,8.6,3.9,8.6,8.6v135.5c0,4.7-3.9,8.6-8.6,8.6h-23.3l-75.9-85.5
	c-2.2-2.5-5.4-4-8.7-4.1c-3.3-0.1-6.6,1.2-9,3.6l-40.2,40.2l-54.2-61c-2.2-2.5-5.4-4-8.7-4.1c-3.3-0.1-6.6,1.2-9,3.6L99,300.4H75.5
	c-4.7,0-8.6-3.9-8.6-8.6v-45.3c0-4.1-3.3-7.4-7.4-7.4c-4.1,0-7.4,3.3-7.4,7.4v45.3c0,12.9,10.5,23.4,23.4,23.4h359.9
	c12.9,0,23.4-10.5,23.4-23.4V156.2z M119.9,300.4l95-95l72,81.2c2.7,3.1,7.4,3.3,10.5,0.6s3.3-7.4,0.6-10.5l-9.9-11.2l38.8-38.8
	l65.3,73.6H119.9z"/>
<path class="st0" d="M75.5,335.9c-12.9,0-23.4,10.5-23.4,23.4v72.6c0,12.9,10.5,23.4,23.4,23.4h143.2c12.9,0,23.4-10.5,23.4-23.4
	v-72.6c0-12.9-10.5-23.4-23.4-23.4H75.5z M227.3,359.3v72.6c0,4.7-3.9,8.6-8.6,8.6H75.5c-4.7,0-8.6-3.9-8.6-8.6v-72.6
	c0-4.7,3.9-8.6,8.6-8.6h143.2C223.5,350.7,227.3,354.6,227.3,359.3z"/>
<path class="st0" d="M292.2,335.9c-12.9,0-23.4,10.5-23.4,23.4v72.6c0,12.9,10.5,23.4,23.4,23.4h143.2c12.9,0,23.4-10.5,23.4-23.4
	v-72.6c0-12.9-10.5-23.4-23.4-23.4H292.2z M444,359.3v72.6c0,4.7-3.9,8.6-8.6,8.6H292.2c-4.7,0-8.6-3.9-8.6-8.6v-72.6
	c0-4.7,3.9-8.6,8.6-8.6h143.2C440.1,350.7,444,354.6,444,359.3z"/>
<path class="st0" d="M89.9,378.7h20c4.1,0,7.4-3.3,7.4-7.4s-3.3-7.4-7.4-7.4h-20c-4.1,0-7.4,3.3-7.4,7.4S85.8,378.7,89.9,378.7z"/>
<path class="st0" d="M89.9,403.7h10.4c4.1,0,7.4-3.3,7.4-7.4s-3.3-7.4-7.4-7.4H89.9c-4.1,0-7.4,3.3-7.4,7.4S85.8,403.7,89.9,403.7z"
	/>
<path class="st0" d="M204.4,388.9h-27.6c-4.1,0-7.4,3.3-7.4,7.4s3.3,7.4,7.4,7.4h27.6c4.1,0,7.4-3.3,7.4-7.4
	S208.5,388.9,204.4,388.9z"/>
<path class="st0" d="M135.3,378.7h67.1c4.1,0,7.4-3.3,7.4-7.4s-3.3-7.4-7.4-7.4h-67.1c-4.1,0-7.4,3.3-7.4,7.4
	S131.2,378.7,135.3,378.7z"/>
<path class="st0" d="M202.4,412.6h-20c-4.1,0-7.4,3.3-7.4,7.4s3.3,7.4,7.4,7.4h20c4.1,0,7.4-3.3,7.4-7.4S206.5,412.6,202.4,412.6z"
	/>
<path class="st0" d="M157,412.6H89.9c-4.1,0-7.4,3.3-7.4,7.4s3.3,7.4,7.4,7.4H157c4.1,0,7.4-3.3,7.4-7.4S161.1,412.6,157,412.6z"/>
<path class="st0" d="M123.2,403.7H152c4.1,0,7.4-3.3,7.4-7.4s-3.3-7.4-7.4-7.4h-28.8c-4.1,0-7.4,3.3-7.4,7.4
	S119.1,403.7,123.2,403.7z"/>
<path class="st0" d="M306.5,378.7h20c4.1,0,7.4-3.3,7.4-7.4s-3.3-7.4-7.4-7.4h-20c-4.1,0-7.4,3.3-7.4,7.4S302.4,378.7,306.5,378.7z"
	/>
<path class="st0" d="M306.5,403.7h10.4c4.1,0,7.4-3.3,7.4-7.4s-3.3-7.4-7.4-7.4h-10.4c-4.1,0-7.4,3.3-7.4,7.4
	S302.4,403.7,306.5,403.7z"/>
<path class="st0" d="M421,388.9h-27.6c-4.1,0-7.4,3.3-7.4,7.4s3.3,7.4,7.4,7.4H421c4.1,0,7.4-3.3,7.4-7.4S425.1,388.9,421,388.9z"/>
<path class="st0" d="M351.9,378.7h67.1c4.1,0,7.4-3.3,7.4-7.4s-3.3-7.4-7.4-7.4h-67.1c-4.1,0-7.4,3.3-7.4,7.4
	S347.8,378.7,351.9,378.7z"/>
<path class="st0" d="M419.1,412.6h-20c-4.1,0-7.4,3.3-7.4,7.4s3.3,7.4,7.4,7.4h20c4.1,0,7.4-3.3,7.4-7.4S423.1,412.6,419.1,412.6z"
	/>
<path class="st0" d="M373.7,412.6h-67.1c-4.1,0-7.4,3.3-7.4,7.4s3.3,7.4,7.4,7.4h67.1c4.1,0,7.4-3.3,7.4-7.4
	S377.7,412.6,373.7,412.6z"/>
<path class="st0" d="M339.9,403.7h28.8c4.1,0,7.4-3.3,7.4-7.4s-3.3-7.4-7.4-7.4h-28.8c-4.1,0-7.4,3.3-7.4,7.4
	S335.8,403.7,339.9,403.7z"/>
<path class="st0" d="M407.3,187.7c0-15.5-12.6-28.2-28.2-28.2c-15.5,0-28.2,12.6-28.2,28.2c0,15.5,12.6,28.2,28.2,28.2
	C394.7,215.9,407.3,203.2,407.3,187.7z M365.7,187.7c0-7.4,6-13.4,13.4-13.4c7.4,0,13.4,6,13.4,13.4c0,7.4-6,13.4-13.4,13.4
	C371.7,201.1,365.7,195.1,365.7,187.7z"/>
</svg>
