<svg id="Capa_1" enable-background="new 0 0 510 510" height="512" viewBox="0 0 510 510" width="512" xmlns="http://www.w3.org/2000/svg"><g><g><path d="m277.581 311.985c-6.465-6.791-18.148-6.798-24.623-.016l-53.252 53.539c-4.844 4.879-11.382 7.072-17.779 6.407 21.217-18.28 23.207-34.344 1.323-53.254-16.96-15.325-33.146-5.308-45.677 9.482-1.047-6.849 1.095-14.037 6.203-19.196l53.356-53.634c6.694-6.729 6.704-17.697.018-24.452-11.293-9.989-26.977-35.889-44.022-19.58-45 48.054-118.149 93.164-65.408 166.713l-37.638 37.638c-6.934 6.75 3.8 17.467 10.54 10.539 0 0 96.972-96.972 96.972-96.972 3.978-4.147 11.138-4.148 15.115.001 6.148 5.679 16.311 14.585 7.869 22.985l-139.316 139.319c-8.406 8.441-17.307-1.726-22.985-7.871-11.487-11.066 11.378-24.743 17.052-32.167 6.955-6.739-3.814-17.473-10.538-10.538-15.225 14.662-36.388 31.662-17.053 53.246 6.848 7.179 15.104 16.067 25.967 15.364 15.74 5.048 86.516-79.744 97.929-87.328 72.88 52.774 118.088-21.631 165.316-66.227 16.078-16.687-9.586-32.812-19.369-43.998zm-173.844-29.876 59.96-60.318c1.371-1.023 2.105-1.022 3.475 0l19.391 19.56c.946.956.947 2.504.004 3.453l-53.368 53.646c-10.966 11.074-13.733 27.734-7.513 41.582l-27.341 27.341c-19.406-25.335-17.576-62.116 5.392-85.264zm182.644 63.368c-40.516 35.664-81.634 110.492-144.13 66.115l27.586-27.587c13.584 5.709 29.785 2.741 40.44-7.99l53.246-53.534c1.346-1.039 2.19-1.002 3.476 0l19.387 19.557c.94.948.939 2.49-.005 3.439z"/><path d="m509.585 33.659c.673-10.826-8.142-19.167-15.367-25.967-9.527-9.928-26.667-9.928-36.194 0l-79.983 79.984c-73.611-52.749-118.666 20.443-166.717 65.412-16.296 16.997 9.594 32.761 19.588 44.023 6.747 6.679 17.714 6.672 24.447-.023l53.622-53.345c5.167-5.117 12.357-7.261 19.208-6.214-14.795 12.544-24.807 28.709-9.483 45.677 18.915 21.893 34.995 19.878 53.254-1.322.664 6.396-1.529 12.934-6.41 17.782l-53.536 53.248c-16.298 16.994 9.579 32.747 19.573 44.008 6.742 6.69 17.707 6.682 24.442-.015l60.413-60.055c19.876-19.699 27.839-48.713 20.783-75.72-1.041-3.982-5.112-6.368-9.094-5.327s-6.367 5.113-5.327 9.094c16.977 48.029-51.376 91.374-77.283 121.44-.948.942-2.49.942-3.439.001l-19.552-19.382c-1.005-1.288-1.043-2.129-.004-3.478l53.531-53.242c10.734-10.66 13.702-26.861 7.994-40.444 6.074-10.192 134.144-123.449 125.534-136.135zm-211.102 99.505-53.634 53.356c-.949.943-2.498.942-3.448.001l-19.562-19.394c-1.024-1.369-1.025-2.104-.005-3.474l60.316-59.958c23.152-22.974 59.934-24.803 85.268-5.397l-27.341 27.341c-13.848-6.221-30.51-3.452-41.594 7.525zm193.066-91.947-139.319 139.319c-2.018 2.019-4.703 3.131-7.558 3.131-6.004.678-11.516-7.662-15.428-11.001-4.144-3.98-4.149-11.136.001-15.115 0 0 139.318-139.319 139.318-139.319 3.977-4.147 11.139-4.147 15.115 0 6.149 5.678 16.311 14.584 7.871 22.985z"/><path d="m95.252 181.378 21.772 8.236c3.748 1.448 8.154-.445 9.606-4.333 1.456-3.849-.484-8.15-4.333-9.606l-21.772-8.236c-8.983-3.554-14.373 10.65-5.273 13.939z"/><path d="m144.805 146.527c6.652 7.011 17.523-3.592 10.663-10.414.001 0-16.931-17.339-16.931-17.339-2.875-2.944-7.593-3.001-10.539-.125-2.944 2.876-3 7.594-.125 10.539z"/><path d="m185.759 117.71c2.38 9.424 17.003 5.485 14.411-3.798l-6.027-22.867c-1.049-3.98-5.125-6.356-9.104-5.307-3.98 1.049-6.356 5.125-5.307 9.104z"/></g></g></svg>